<svg width="32" height="32" viewBox="0 0 32 32" fill="none" xmlns="http://www.w3.org/2000/svg">
  <circle cx="16" cy="16" r="16" fill="#1E1E1E"></circle>
  <path
    d="M16 10.4a2.4 2.4 0 1 0 0 4.8 2.4 2.4 0 0 0 0-4.8Z"
    fill="none"
  ></path>
  <path
    d="M17.06 6.5h-2.12l-.36 2.14a6.53 6.53 0 0 0-1.55.64L11.1 8.02 9.6 9.52l1.26 1.93c-.3.49-.52 1.02-.65 1.58L8 13.4v2.12l2.14.36c.13.56.35 1.09.64 1.55L9.52 19.4l1.5 1.5 1.93-1.26c.49.3 1.02.52 1.58.65l.36 2.13h2.12l.36-2.14c.56-.13 1.09-.35 1.55-.64l1.93 1.26 1.5-1.5-1.26-1.93c.3-.49.52-1.02.65-1.58l2.14-.36v-2.12l-2.14-.36a6.53 6.53 0 0 0-.64-1.55l1.26-1.93-1.5-1.5-1.93 1.26a6.53 6.53 0 0 0-1.58-.65L17.06 6.5ZM16 19a3 3 0 1 1 0-6 3 3 0 0 1 0 6Z"
    fill="#54C750"
  ></path>
</svg>
